<svg width="108" height="74" viewBox="0 0 108 74" fill="none" xmlns="http://www.w3.org/2000/svg">
<path d="M34.9915 0.272724H37.9915V-2.72728H34.9915V0.272724ZM34.9915 73V76H37.9915V73H34.9915ZM17.4489 73H14.4489V76H17.4489V73ZM17.4489 16.679H20.4489V13.679H17.4489V16.679ZM17.0227 16.679V13.679H16.1783L15.4579 14.1194L17.0227 16.679ZM0.758523 26.6222H-2.24148V31.9724L2.32333 29.1817L0.758523 26.6222ZM0.758523 11.4233L-0.825574 8.87562L-2.24148 9.756V11.4233H0.758523ZM18.6918 0.272724V-2.72728H17.8351L17.1077 -2.27495L18.6918 0.272724ZM31.9915 0.272724V73H37.9915V0.272724H31.9915ZM34.9915 70H17.4489V76H34.9915V70ZM20.4489 73V16.679H14.4489V73H20.4489ZM17.4489 13.679H17.0227V19.679H17.4489V13.679ZM15.4579 14.1194L-0.806279 24.0626L2.32333 29.1817L18.5875 19.2385L15.4579 14.1194ZM3.75852 26.6222V11.4233H-2.24148V26.6222H3.75852ZM2.34262 13.971L20.2759 2.8204L17.1077 -2.27495L-0.825574 8.87562L2.34262 13.971ZM18.6918 3.27272H34.9915V-2.72728H18.6918V3.27272ZM64.7766 71.1179L63.5105 73.8376L64.7766 71.1179ZM55.011 63.1989L52.5582 64.9262L52.5663 64.9377L55.011 63.1989ZM51.3178 51.6222V48.6222H48.2519L48.3185 51.6874L51.3178 51.6222ZM68.3633 51.6222L71.3591 51.4631L71.2082 48.6222H68.3633V51.6222ZM71.6303 58.0852L69.7529 60.4252L69.7613 60.4319L69.7696 60.4385L71.6303 58.0852ZM84.7695 59.044L83.285 56.4371L84.7695 59.044ZM88.7823 54.9602L91.4065 56.4141L91.4106 56.4067L91.4147 56.3992L88.7823 54.9602ZM90.2028 48.8523L87.2029 48.822L87.2026 48.8526L87.2029 48.8832L90.2028 48.8523ZM88.7468 42.7088L86.1227 44.1627L86.1301 44.1762L86.1377 44.1896L88.7468 42.7088ZM84.6985 38.625L83.1869 41.2163L83.2081 41.2287L83.2294 41.2407L84.6985 38.625ZM78.8036 37.1335L78.7699 40.1333L78.7868 40.1335H78.8036V37.1335ZM72.8022 38.5185L71.4606 35.8352L71.4538 35.8386L71.447 35.842L72.8022 38.5185ZM68.5408 42.3892L67.9876 45.3377L70.0487 45.7245L71.1199 43.9217L68.5408 42.3892ZM53.0224 39.4773L50.0321 39.2362L49.8151 41.9278L52.4691 42.4258L53.0224 39.4773ZM56.1829 0.272724V-2.72728H53.415L53.1926 0.0316601L56.1829 0.272724ZM102.845 0.272724H105.845V-2.72728H102.845V0.272724ZM102.845 14.4418V17.4418H105.845V14.4418H102.845ZM70.636 14.4418V11.4418H67.9138L67.6501 14.1512L70.636 14.4418ZM68.967 31.5938L65.9811 31.3032L65.6609 34.5938H68.967V31.5938ZM69.3931 31.5938V34.5938H71.0917L71.9656 33.1372L69.3931 31.5938ZM75.217 26.6222L76.5299 29.3196L76.5397 29.3148L75.217 26.6222ZM96.0621 27.6875L94.5239 30.2631L94.5344 30.2694L94.545 30.2756L96.0621 27.6875ZM104.159 36.0682L101.53 37.5133L101.533 37.5199L101.537 37.5266L104.159 36.0682ZM103.591 61.6364L101.033 60.0676L101.026 60.079L103.591 61.6364ZM93.7184 70.7273L95.0959 73.3923L95.1015 73.3894L93.7184 70.7273ZM78.9102 70.9943C73.9719 70.9943 69.7046 70.1028 66.0427 68.3982L63.5105 73.8376C68.0874 75.9682 73.2423 76.9943 78.9102 76.9943V70.9943ZM66.0427 68.3982C62.3456 66.6771 59.5157 64.3563 57.4557 61.46L52.5663 64.9377C55.2885 68.765 58.969 71.7235 63.5105 73.8376L66.0427 68.3982ZM57.4638 61.4715C55.4606 58.627 54.3997 55.3544 54.3171 51.557L48.3185 51.6874C48.4254 56.602 49.8265 61.0473 52.5582 64.9262L57.4638 61.4715ZM51.3178 54.6222H68.3633V48.6222H51.3178V54.6222ZM65.3675 51.7812C65.5535 55.2839 67.0309 58.2412 69.7529 60.4252L73.5077 55.7453C72.1578 54.6622 71.4572 53.3108 71.3591 51.4631L65.3675 51.7812ZM69.7696 60.4385C72.3817 62.5038 75.4791 63.5 78.9102 63.5V57.5C76.7068 57.5 74.951 56.8863 73.491 55.732L69.7696 60.4385ZM78.9102 63.5C81.5674 63.5 84.0438 62.9096 86.2541 61.651L83.285 56.4371C82.0862 57.1198 80.6563 57.5 78.9102 57.5V63.5ZM86.2541 61.651C88.4476 60.4019 90.1749 58.637 91.4065 56.4141L86.1582 53.5063C85.4485 54.7872 84.5006 55.7449 83.285 56.4371L86.2541 61.651ZM91.4147 56.3992C92.6632 54.1153 93.2309 51.5608 93.2026 48.8214L87.2029 48.8832C87.222 50.7366 86.8427 52.254 86.15 53.5212L91.4147 56.3992ZM93.2026 48.8826C93.2308 46.097 92.6516 43.5109 91.3559 41.228L86.1377 44.1896C86.8307 45.4105 87.2221 46.92 87.2029 48.822L93.2026 48.8826ZM91.3709 41.2549C90.1335 39.0214 88.3865 37.2555 86.1676 36.0093L83.2294 41.2407C84.467 41.9357 85.4188 42.8924 86.1227 44.1627L91.3709 41.2549ZM86.2101 36.0337C83.9904 34.7388 81.4909 34.1335 78.8036 34.1335V40.1335C80.5671 40.1335 81.9975 40.5225 83.1869 41.2163L86.2101 36.0337ZM78.8373 34.1337C76.2508 34.1046 73.7791 34.6759 71.4606 35.8352L74.1438 41.2017C75.6132 40.4671 77.1424 40.115 78.7699 40.1333L78.8373 34.1337ZM71.447 35.842C69.1228 37.0188 67.2531 38.6835 65.9618 40.8567L71.1199 43.9217C71.7699 42.8278 72.7411 41.9121 74.1574 41.1949L71.447 35.842ZM69.0941 39.4407L53.5756 36.5287L52.4691 42.4258L67.9876 45.3377L69.0941 39.4407ZM56.0127 39.7183L59.1732 0.51379L53.1926 0.0316601L50.0321 39.2362L56.0127 39.7183ZM56.1829 3.27272H102.845V-2.72728H56.1829V3.27272ZM99.8448 0.272724V14.4418H105.845V0.272724H99.8448ZM102.845 11.4418H70.636V17.4418H102.845V11.4418ZM67.6501 14.1512L65.9811 31.3032L71.9529 31.8843L73.6219 14.7323L67.6501 14.1512ZM68.967 34.5938H69.3931V28.5938H68.967V34.5938ZM71.9656 33.1372C72.803 31.7415 74.2382 30.435 76.5299 29.3196L73.9041 23.9247C70.8453 25.4135 68.398 27.4213 66.8206 30.0503L71.9656 33.1372ZM76.5397 29.3148C78.7722 28.2182 81.3751 27.6335 84.4144 27.6335V21.6335C80.5882 21.6335 77.0595 22.3746 73.8943 23.9295L76.5397 29.3148ZM84.4144 27.6335C88.283 27.6335 91.6243 28.5314 94.5239 30.2631L97.6004 25.1119C93.6818 22.7716 89.2579 21.6335 84.4144 21.6335V27.6335ZM94.545 30.2756C97.4986 32.007 99.8186 34.4002 101.53 37.5133L106.788 34.6231C104.569 30.5865 101.491 27.3926 97.5793 25.0994L94.545 30.2756ZM101.537 37.5266C103.247 40.6005 104.142 44.1824 104.142 48.3551H110.142C110.142 43.2949 109.048 38.6855 106.78 34.6098L101.537 37.5266ZM104.142 48.3551C104.142 52.8557 103.082 56.7286 101.033 60.0676L106.148 63.2052C108.834 58.8263 110.142 53.8451 110.142 48.3551H104.142ZM101.026 60.079C98.9845 63.441 96.1149 66.1014 92.3353 68.0651L95.1015 73.3894C99.7972 70.9497 103.509 67.5495 106.155 63.1937L101.026 60.079ZM92.3409 68.0622C88.6275 69.9815 84.1808 70.9943 78.9102 70.9943V76.9943C84.9558 76.9943 90.3813 75.8291 95.0958 73.3923L92.3409 68.0622Z" fill="#EDAD73"/>
</svg>
