<svg width="129" height="75" viewBox="0 0 129 75" fill="none" xmlns="http://www.w3.org/2000/svg">
<path d="M19.0824 73.0767L18.0734 75.9019L18.0815 75.9048L18.0897 75.9077L19.0824 73.0767ZM9.35227 66.8977L7.23093 69.0191L7.23985 69.0279L9.35227 66.8977ZM2.64062 55.7472L-0.187546 56.7479L-0.185917 56.7525L2.64062 55.7472ZM0.225852 38.8793L-2.77412 38.8674L-2.77413 38.8685L0.225852 38.8793ZM2.42756 22.7571L5.29827 23.6283L5.29947 23.6244L2.42756 22.7571ZM8.60653 10.5767L6.27362 8.69052L6.26555 8.70059L8.60653 10.5767ZM18.2656 2.94176L19.5381 5.65856L19.5455 5.65505L18.2656 2.94176ZM44.331 3.26136L42.9633 5.93149L42.9731 5.93648L42.9828 5.94139L44.331 3.26136ZM53.706 11.2159L51.2507 12.9398L51.2565 12.948L53.706 11.2159ZM57.8608 22.2954V25.2954H61.1911L60.8445 21.9832L57.8608 22.2954ZM40.5668 22.2954L37.6411 22.959L38.171 25.2954H40.5668V22.2954ZM37.1222 17.0753L35.4197 19.5455L35.4388 19.5586L35.4581 19.5714L37.1222 17.0753ZM20.8935 21.0526L18.2877 19.5658L18.2809 19.578L20.8935 21.0526ZM17.5554 36.5355L14.5555 36.5135L14.5333 39.5355H17.5554V36.5355ZM18.017 36.5355V39.5355H19.9453L20.7461 37.7814L18.017 36.5355ZM22.3139 30.9247L24.2373 33.227H24.2373L22.3139 30.9247ZM28.7415 27.3381L29.7152 30.1757L29.7232 30.1729L29.7313 30.1701L28.7415 27.3381ZM48.0242 29.0781L46.4753 31.6474L48.0242 29.0781ZM55.8722 37.3523L53.233 38.7788L53.2371 38.7863L55.8722 37.3523ZM58.6776 49.3196L55.6776 49.3038L55.6775 49.3187L55.6776 49.3336L58.6776 49.3196ZM55.1264 62.7429L57.6766 64.323L57.6809 64.3161L55.1264 62.7429ZM45.1832 71.7628L43.8237 69.0885L43.8176 69.0916L45.1832 71.7628ZM41.6321 49.8878L38.6323 49.8559L38.6319 49.888L38.6323 49.92L41.6321 49.8878ZM40.2117 43.9574L37.5807 45.399L37.5883 45.4128L37.596 45.4265L40.2117 43.9574ZM36.2344 39.8381L34.6803 42.4041L34.6882 42.4089L34.6962 42.4137L36.2344 39.8381ZM22.4205 41.6847L20.2515 39.6121L20.2504 39.6132L22.4205 41.6847ZM20.0767 45.3778L22.8556 46.5082L22.8589 46.5001L22.8621 46.492L20.0767 45.3778ZM19.1889 49.9233L16.1892 49.8798L16.1887 49.918L16.1891 49.9563L19.1889 49.9233ZM20.6804 55.7827L18.0563 57.2366L20.6804 55.7827ZM24.6577 59.973L23.0774 62.523L23.0904 62.5311L23.1036 62.5391L24.6577 59.973ZM30.517 71.9943C26.8677 71.9943 23.3925 71.409 20.0751 70.2457L18.0897 75.9077C22.0639 77.3013 26.2118 77.9943 30.517 77.9943V71.9943ZM20.0914 70.2515C16.8739 69.1024 14.004 67.2857 11.4647 64.7675L7.23985 69.0279C10.3824 72.1443 13.9992 74.4469 18.0734 75.9019L20.0914 70.2515ZM11.4736 64.7764C9.00768 62.3105 6.9827 59.0029 5.46717 54.7418L-0.185917 56.7525C1.5656 61.677 4.01504 65.8031 7.23095 69.0191L11.4736 64.7764ZM5.46879 54.7464C3.98284 50.547 3.20298 45.288 3.22583 38.89L-2.77413 38.8685C-2.79863 45.7281 -1.96864 51.7144 -0.187542 56.7479L5.46879 54.7464ZM3.22583 38.8911C3.24858 33.1353 3.95391 28.0581 5.29827 23.6283L-0.443156 21.8859C-1.98705 26.9732 -2.74953 32.644 -2.77412 38.8674L3.22583 38.8911ZM5.29947 23.6244C6.65105 19.1486 8.54884 15.4459 10.9475 12.4528L6.26555 8.70059C3.31385 12.3837 1.09232 16.8012 -0.444352 21.8898L5.29947 23.6244ZM10.9394 12.4629C13.3639 9.46419 16.2257 7.20989 19.538 5.65855L16.9932 0.224968C12.8245 2.17742 9.24691 5.01308 6.27364 8.69053L10.9394 12.4629ZM19.5455 5.65505C22.8655 4.08899 26.6233 3.27841 30.8722 3.27841V-2.72159C25.8407 -2.72159 21.1941 -1.75661 16.9858 0.228462L19.5455 5.65505ZM30.8722 3.27841C35.5659 3.27841 39.5694 4.19315 42.9633 5.93149L45.6986 0.591232C41.3274 -1.6477 36.3584 -2.72159 30.8722 -2.72159V3.27841ZM42.9828 5.94139C46.4796 7.70036 49.2118 10.0359 51.2507 12.9398L56.1612 9.49201C53.5126 5.71977 49.9949 2.75229 45.6791 0.581337L42.9828 5.94139ZM51.2565 12.948C53.3008 15.839 54.504 19.0424 54.8771 22.6077L60.8445 21.9832C60.3653 17.4046 58.7986 13.2217 56.1554 9.4838L51.2565 12.948ZM57.8608 19.2954H40.5668V25.2954H57.8608V19.2954ZM43.4925 21.6319C42.8207 18.67 41.2703 16.2352 38.7863 14.5791L35.4581 19.5714C36.5251 20.2828 37.2712 21.3281 37.6411 22.959L43.4925 21.6319ZM38.8246 14.6051C36.5063 13.0074 33.81 12.2642 30.8722 12.2642V18.2642C32.7639 18.2642 34.2342 18.7284 35.4197 19.5455L38.8246 14.6051ZM30.8722 12.2642C25.3465 12.2642 21.0245 14.7692 18.2878 19.5659L23.4992 22.5392C25.1658 19.6181 27.4963 18.2642 30.8722 18.2642V12.2642ZM18.2809 19.578C15.7637 24.0377 14.605 29.759 14.5555 36.5135L20.5553 36.5575C20.6005 30.3858 21.6671 25.7852 23.5061 22.5271L18.2809 19.578ZM17.5554 39.5355H18.017V33.5355H17.5554V39.5355ZM20.7461 37.7814C21.5508 36.0187 22.7048 34.5073 24.2373 33.227L20.3905 28.6224C18.1825 30.4671 16.4719 32.6962 15.288 35.2896L20.7461 37.7814ZM24.2373 33.227C25.8131 31.9105 27.6303 30.8911 29.7152 30.1757L27.7678 24.5005C25.0231 25.4423 22.5552 26.8139 20.3905 28.6224L24.2373 33.227ZM29.7313 30.1701C31.8347 29.4349 34.0791 29.0597 36.483 29.0597V23.0597C33.4417 23.0597 30.5251 23.5367 27.7517 24.5061L29.7313 30.1701ZM36.483 29.0597C40.3591 29.0597 43.6581 29.9491 46.4753 31.6474L49.573 26.5089C45.7141 24.1826 41.319 23.0597 36.483 23.0597V29.0597ZM46.4753 31.6474C49.344 33.3767 51.5881 35.7357 53.233 38.7788L58.5113 35.9257C56.3684 31.9613 53.3804 28.8041 49.573 26.5089L46.4753 31.6474ZM53.2371 38.7863C54.8578 41.7644 55.699 45.2426 55.6776 49.3038L61.6775 49.3354C61.7035 44.4004 60.6744 39.9003 58.5072 35.9182L53.2371 38.7863ZM55.6776 49.3336C55.6989 53.9038 54.6373 57.8161 52.572 61.1697L57.6809 64.3161C60.3977 59.9045 61.7035 54.868 61.6775 49.3056L55.6776 49.3336ZM52.5763 61.1628C50.4884 64.5323 47.596 67.1708 43.8237 69.0885L46.5428 74.437C51.2458 72.0461 54.9823 68.6712 57.6766 64.323L52.5763 61.1628ZM43.8176 69.0916C40.0947 70.9949 35.6888 71.9943 30.517 71.9943V77.9943C36.4722 77.9943 41.8438 76.8393 46.5488 74.434L43.8176 69.0916ZM30.4105 64.5C33.0588 64.5 35.5282 63.8678 37.7371 62.5486L34.6606 57.3974C33.4604 58.1142 32.0709 58.5 30.4105 58.5V64.5ZM37.7371 62.5486C39.9004 61.2566 41.6109 59.4829 42.8358 57.2721L37.5875 54.3643C36.8711 55.6572 35.9064 56.6534 34.6606 57.3974L37.7371 62.5486ZM42.8358 57.2721C44.0827 55.0215 44.6606 52.5238 44.6319 49.8555L38.6323 49.92C38.6509 51.6551 38.2818 53.1111 37.5875 54.3643L42.8358 57.2721ZM44.6319 49.9197C44.6605 47.2348 44.0857 44.7288 42.8273 42.4883L37.596 45.4265C38.2789 46.6424 38.6511 48.09 38.6323 49.8559L44.6319 49.9197ZM42.8426 42.5158C41.6368 40.3153 39.9323 38.5522 37.7726 37.2624L34.6962 42.4137C35.9456 43.1599 36.8925 44.143 37.5807 45.399L42.8426 42.5158ZM37.7885 37.272C35.5893 35.9401 33.1109 35.3111 30.446 35.3111V41.3111C32.1372 41.3111 33.5177 41.7001 34.6803 42.4041L37.7885 37.272ZM30.446 35.3111C28.4767 35.3111 26.5903 35.6807 24.8196 36.4439L27.1946 41.9538C28.1702 41.5333 29.243 41.3111 30.446 41.3111V35.3111ZM24.8196 36.4439C23.0825 37.1927 21.5517 38.2514 20.2515 39.6121L24.5894 43.7572C25.3252 42.9873 26.1855 42.3888 27.1946 41.9538L24.8196 36.4439ZM20.2504 39.6132C18.9756 40.9488 17.9927 42.5102 17.2913 44.2637L22.8621 46.492C23.2971 45.4045 23.8767 44.5039 24.5905 43.7561L20.2504 39.6132ZM17.2978 44.2474C16.5778 46.0175 16.2179 47.9047 16.1892 49.8798L22.1886 49.9668C22.2073 48.6749 22.4392 47.5318 22.8556 46.5082L17.2978 44.2474ZM16.1891 49.9563C16.2178 52.5694 16.8264 55.0169 18.0563 57.2366L23.3045 54.3288C22.5931 53.0447 22.2074 51.5859 22.1887 49.8903L16.1891 49.9563ZM18.0563 57.2366C19.2721 59.431 20.9548 61.2076 23.0774 62.523L26.238 57.423C24.9988 56.6551 24.03 55.6381 23.3045 54.3288L18.0563 57.2366ZM23.1036 62.5391C25.2976 63.8679 27.7627 64.5 30.4105 64.5V58.5C28.7496 58.5 27.3794 58.1141 26.2118 57.4069L23.1036 62.5391ZM67.7596 61.9261H64.7596V64.9261H67.7596V61.9261ZM67.7596 48.2188L65.2266 46.6112L64.7596 47.3471V48.2188H67.7596ZM97.5536 1.27272V-1.72728H95.9044L95.0207 -0.334801L97.5536 1.27272ZM109.734 1.27272H112.734V-1.72728H109.734V1.27272ZM109.734 19.8807V22.8807H112.734V19.8807H109.734ZM102.667 19.8807V16.8807H101.013L100.13 18.2796L102.667 19.8807ZM85.2312 47.5085L82.6942 45.9074L82.2312 46.641V47.5085H85.2312ZM85.2312 48.0767H82.2312V51.0767H85.2312V48.0767ZM128.377 48.0767H131.377V45.0767H128.377V48.0767ZM128.377 61.9261V64.9261H131.377V61.9261H128.377ZM102.88 74H99.8803V77H102.88V74ZM102.88 57.7358L99.8856 57.5586L99.8803 57.6471V57.7358H102.88ZM103.235 51.7344L106.23 51.9116L106.235 51.8231V51.7344H103.235ZM103.235 1.27272V-1.72728H100.235V1.27272H103.235ZM119.677 1.27272H122.677V-1.72728H119.677V1.27272ZM119.677 74V77H122.677V74H119.677ZM70.7596 61.9261V48.2188H64.7596V61.9261H70.7596ZM70.2925 49.8263L100.087 2.88025L95.0207 -0.334801L65.2266 46.6112L70.2925 49.8263ZM97.5536 4.27272H109.734V-1.72728H97.5536V4.27272ZM106.734 1.27272V19.8807H112.734V1.27272H106.734ZM109.734 16.8807H102.667V22.8807H109.734V16.8807ZM100.13 18.2796L82.6942 45.9074L87.7682 49.1096L105.204 21.4818L100.13 18.2796ZM82.2312 47.5085V48.0767H88.2312V47.5085H82.2312ZM85.2312 51.0767H128.377V45.0767H85.2312V51.0767ZM125.377 48.0767V61.9261H131.377V48.0767H125.377ZM128.377 58.9261H67.7596V64.9261H128.377V58.9261ZM105.88 74V57.7358H99.8803V74H105.88ZM105.875 57.913L106.23 51.9116L100.241 51.5572L99.8856 57.5586L105.875 57.913ZM106.235 51.7344V1.27272H100.235V51.7344H106.235ZM103.235 4.27272H119.677V-1.72728H103.235V4.27272ZM116.677 1.27272V74H122.677V1.27272H116.677ZM119.677 71H102.88V77H119.677V71Z" fill="#EDAD73"/>
</svg>
