<svg width="137" height="91" viewBox="0 0 137 91" fill="none" xmlns="http://www.w3.org/2000/svg">
<path d="M5.4517 73L2.77368 71.6479L0.576347 76H5.4517V73ZM34.7841 14.9034L37.4621 16.2555L37.7841 15.6178V14.9034H34.7841ZM34.7841 14.4418H37.7841V11.4418H34.7841V14.4418ZM0.480114 14.4418H-2.51989V17.4418H0.480114V14.4418ZM0.480114 0.272724V-2.72728H-2.51989V0.272724H0.480114ZM52.9659 0.272724H55.9659V-2.72728H52.9659V0.272724ZM52.9659 14.5483L55.6453 15.8977L55.9659 15.2611V14.5483H52.9659ZM23.527 73V76H25.3751L26.2064 74.3494L23.527 73ZM8.12973 74.3521L37.4621 16.2555L32.1061 13.5513L2.77368 71.6479L8.12973 74.3521ZM37.7841 14.9034V14.4418H31.7841V14.9034H37.7841ZM34.7841 11.4418H0.480114V17.4418H34.7841V11.4418ZM3.48011 14.4418V0.272724H-2.51989V14.4418H3.48011ZM0.480114 3.27272H52.9659V-2.72728H0.480114V3.27272ZM49.9659 0.272724V14.5483H55.9659V0.272724H49.9659ZM50.2865 13.1988L20.8476 71.6506L26.2064 74.3494L55.6453 15.8977L50.2865 13.1988ZM23.527 70H5.4517V76H23.527V70ZM67.9783 63.0568L70.9685 63.2993L71.2314 60.0568H67.9783V63.0568ZM67.6587 66.9986L70.6475 67.2585L70.6482 67.2497L70.6489 67.241L67.6587 66.9986ZM65.9187 76.5511L63.0316 75.7357L63.0279 75.7487L63.0244 75.7618L65.9187 76.5511ZM63.1843 84.9673L60.3898 83.8761L63.1843 84.9673ZM60.8761 90.7557V93.7557H62.8814L63.6481 91.9027L60.8761 90.7557ZM49.9386 90.7557L47.0466 89.9579L45.9989 93.7557H49.9386V90.7557ZM51.4656 84.9673L48.5668 84.1943L48.5634 84.2073L48.5601 84.2202L51.4656 84.9673ZM53.3121 76.5511L50.3605 76.0145L53.3121 76.5511ZM54.271 67.0341L57.2702 67.1003L57.2705 67.0877L54.271 67.0341ZM54.342 63.0568V60.0568H51.3951L51.3425 63.0033L54.342 63.0568ZM64.9882 62.8144L64.6685 66.7561L70.6489 67.241L70.9685 63.2993L64.9882 62.8144ZM64.67 66.7387C64.402 69.8211 63.8554 72.8191 63.0316 75.7357L68.8057 77.3666C69.7339 74.0805 70.3473 70.7102 70.6475 67.2585L64.67 66.7387ZM63.0244 75.7618C62.1944 78.8052 61.3148 81.5073 60.3898 83.8761L65.9788 86.0585C66.9951 83.4557 67.9385 80.547 68.813 77.3405L63.0244 75.7618ZM60.3898 83.8761C59.4217 86.3554 58.6608 88.2631 58.104 89.6086L63.6481 91.9027C64.2277 90.502 65.0056 88.5508 65.9788 86.0585L60.3898 83.8761ZM60.8761 87.7557H49.9386V93.7557H60.8761V87.7557ZM52.8305 91.5535C53.2163 90.1553 53.7303 88.2061 54.371 85.7145L48.5601 84.2202C47.9224 86.7001 47.4184 88.6099 47.0466 89.9579L52.8305 91.5535ZM54.3643 85.7403C55.0521 83.1609 55.6843 80.2747 56.2638 77.0878L50.3605 76.0145C49.8036 79.0776 49.2048 81.8021 48.5668 84.1943L54.3643 85.7403ZM56.2638 77.0878C56.8606 73.8053 57.1958 70.4756 57.2702 67.1003L51.2717 66.9679C51.2041 70.032 50.9001 73.047 50.3605 76.0145L56.2638 77.0878ZM57.2705 67.0877L57.3415 63.1104L51.3425 63.0033L51.2714 66.9805L57.2705 67.0877ZM54.342 66.0568H67.9783V60.0568H54.342V66.0568ZM94.5852 71.1179L93.3191 73.8376L94.5852 71.1179ZM84.8196 63.1989L82.3668 64.9262L82.3749 64.9377L84.8196 63.1989ZM81.1264 51.6222V48.6222H78.0605L78.1271 51.6874L81.1264 51.6222ZM98.1719 51.6222L101.168 51.4631L101.017 48.6222H98.1719V51.6222ZM101.439 58.0852L99.5615 60.4252L99.5698 60.4319L99.5782 60.4385L101.439 58.0852ZM114.578 59.044L113.094 56.4371L114.578 59.044ZM118.591 54.9602L121.215 56.4141L121.219 56.4067L121.223 56.3992L118.591 54.9602ZM120.011 48.8523L117.012 48.822L117.011 48.8526L117.012 48.8832L120.011 48.8523ZM118.555 42.7088L115.931 44.1627L115.939 44.1762L115.946 44.1896L118.555 42.7088ZM114.507 38.625L112.995 41.2163L113.017 41.2287L113.038 41.2407L114.507 38.625ZM108.612 37.1335L108.579 40.1333L108.595 40.1335H108.612V37.1335ZM102.611 38.5185L101.269 35.8352L101.262 35.8386L101.256 35.842L102.611 38.5185ZM98.3494 42.3892L97.7962 45.3377L99.8572 45.7245L100.928 43.9217L98.3494 42.3892ZM82.831 39.4773L79.8407 39.2362L79.6237 41.9278L82.2777 42.4258L82.831 39.4773ZM85.9915 0.272724V-2.72728H83.2236L83.0012 0.0316601L85.9915 0.272724ZM132.653 0.272724H135.653V-2.72728H132.653V0.272724ZM132.653 14.4418V17.4418H135.653V14.4418H132.653ZM100.445 14.4418V11.4418H97.7224L97.4587 14.1512L100.445 14.4418ZM98.7756 31.5938L95.7897 31.3032L95.4695 34.5938H98.7756V31.5938ZM99.2017 31.5938V34.5938H100.9L101.774 33.1372L99.2017 31.5938ZM105.026 26.6222L106.338 29.3196L106.348 29.3148L105.026 26.6222ZM125.871 27.6875L124.333 30.2631L124.343 30.2694L124.354 30.2756L125.871 27.6875ZM133.967 36.0682L131.338 37.5133L131.342 37.5199L131.346 37.5266L133.967 36.0682ZM133.399 61.6364L130.842 60.0676L130.835 60.079L133.399 61.6364ZM123.527 70.7273L124.904 73.3923L124.91 73.3894L123.527 70.7273ZM108.719 70.9943C103.781 70.9943 99.5131 70.1028 95.8513 68.3982L93.3191 73.8376C97.896 75.9682 103.051 76.9943 108.719 76.9943V70.9943ZM95.8513 68.3982C92.1542 66.6771 89.3243 64.3563 87.2643 61.46L82.3749 64.9377C85.0971 68.765 88.7776 71.7235 93.3191 73.8376L95.8513 68.3982ZM87.2724 61.4715C85.2692 58.627 84.2083 55.3544 84.1257 51.557L78.1271 51.6874C78.234 56.602 79.6351 61.0473 82.3668 64.9262L87.2724 61.4715ZM81.1264 54.6222H98.1719V48.6222H81.1264V54.6222ZM95.1761 51.7812C95.3621 55.2839 96.8395 58.2412 99.5615 60.4252L103.316 55.7453C101.966 54.6622 101.266 53.3108 101.168 51.4631L95.1761 51.7812ZM99.5782 60.4385C102.19 62.5038 105.288 63.5 108.719 63.5V57.5C106.515 57.5 104.76 56.8863 103.3 55.732L99.5782 60.4385ZM108.719 63.5C111.376 63.5 113.852 62.9096 116.063 61.651L113.094 56.4371C111.895 57.1198 110.465 57.5 108.719 57.5V63.5ZM116.063 61.651C118.256 60.4019 119.983 58.637 121.215 56.4141L115.967 53.5063C115.257 54.7872 114.309 55.7449 113.094 56.4371L116.063 61.651ZM121.223 56.3992C122.472 54.1153 123.039 51.5608 123.011 48.8214L117.012 48.8832C117.031 50.7366 116.651 52.254 115.959 53.5212L121.223 56.3992ZM123.011 48.8826C123.039 46.097 122.46 43.5109 121.164 41.228L115.946 44.1896C116.639 45.4105 117.031 46.92 117.012 48.822L123.011 48.8826ZM121.18 41.2549C119.942 39.0214 118.195 37.2555 115.976 36.0093L113.038 41.2407C114.276 41.9357 115.227 42.8924 115.931 44.1627L121.18 41.2549ZM116.019 36.0337C113.799 34.7388 111.3 34.1335 108.612 34.1335V40.1335C110.376 40.1335 111.806 40.5225 112.995 41.2163L116.019 36.0337ZM108.646 34.1337C106.059 34.1046 103.588 34.6759 101.269 35.8352L103.952 41.2017C105.422 40.4671 106.951 40.115 108.579 40.1333L108.646 34.1337ZM101.256 35.842C98.9314 37.0188 97.0617 38.6835 95.7704 40.8567L100.928 43.9217C101.578 42.8278 102.55 41.9121 103.966 41.1949L101.256 35.842ZM98.9027 39.4407L83.3842 36.5287L82.2777 42.4258L97.7962 45.3377L98.9027 39.4407ZM85.8213 39.7183L88.9818 0.51379L83.0012 0.0316601L79.8407 39.2362L85.8213 39.7183ZM85.9915 3.27272H132.653V-2.72728H85.9915V3.27272ZM129.653 0.272724V14.4418H135.653V0.272724H129.653ZM132.653 11.4418H100.445V17.4418H132.653V11.4418ZM97.4587 14.1512L95.7897 31.3032L101.761 31.8843L103.43 14.7323L97.4587 14.1512ZM98.7756 34.5938H99.2017V28.5938H98.7756V34.5938ZM101.774 33.1372C102.612 31.7415 104.047 30.435 106.338 29.3196L103.713 23.9247C100.654 25.4135 98.2066 27.4213 96.6292 30.0503L101.774 33.1372ZM106.348 29.3148C108.581 28.2182 111.184 27.6335 114.223 27.6335V21.6335C110.397 21.6335 106.868 22.3746 103.703 23.9295L106.348 29.3148ZM114.223 27.6335C118.092 27.6335 121.433 28.5314 124.333 30.2631L127.409 25.1119C123.49 22.7716 119.067 21.6335 114.223 21.6335V27.6335ZM124.354 30.2756C127.307 32.007 129.627 34.4002 131.338 37.5133L136.596 34.6231C134.378 30.5865 131.3 27.3926 127.388 25.0994L124.354 30.2756ZM131.346 37.5266C133.056 40.6005 133.95 44.1824 133.95 48.3551H139.95C139.95 43.2949 138.856 38.6855 136.589 34.6098L131.346 37.5266ZM133.95 48.3551C133.95 52.8557 132.89 56.7286 130.842 60.0676L135.956 63.2052C138.643 58.8263 139.95 53.8451 139.95 48.3551H133.95ZM130.835 60.079C128.793 63.441 125.924 66.1014 122.144 68.0651L124.91 73.3894C129.606 70.9497 133.318 67.5495 135.963 63.1937L130.835 60.079ZM122.15 68.0622C118.436 69.9815 113.989 70.9943 108.719 70.9943V76.9943C114.764 76.9943 120.19 75.8291 124.904 73.3923L122.15 68.0622Z" fill="#EDAD73"/>
</svg>
