<svg width="220" height="140" viewBox="0 0 220 140" fill="none" xmlns="http://www.w3.org/2000/svg">
<path d="M1.53409 135V124.091H5.99432C7.16856 124.091 8.10133 124.356 8.79261 124.886C9.4839 125.417 9.82955 126.117 9.82955 126.989C9.82955 127.652 9.63305 128.165 9.24006 128.53C8.84706 128.89 8.3428 129.134 7.72727 129.261C8.12974 129.318 8.52036 129.46 8.89915 129.688C9.28267 129.915 9.59991 130.227 9.85085 130.625C10.1018 131.018 10.2273 131.501 10.2273 132.074C10.2273 132.633 10.0852 133.132 9.80114 133.572C9.51705 134.013 9.10985 134.361 8.57955 134.616C8.04924 134.872 7.41477 135 6.67614 135H1.53409ZM3.125 133.466H6.67614C7.25379 133.466 7.70597 133.329 8.03267 133.054C8.35938 132.779 8.52273 132.405 8.52273 131.932C8.52273 131.368 8.35938 130.926 8.03267 130.604C7.70597 130.277 7.25379 130.114 6.67614 130.114H3.125V133.466ZM3.125 128.665H5.99432C6.44413 128.665 6.83002 128.603 7.15199 128.48C7.47396 128.352 7.72017 128.172 7.89062 127.94C8.06581 127.704 8.15341 127.424 8.15341 127.102C8.15341 126.643 7.96165 126.283 7.57812 126.023C7.1946 125.758 6.66667 125.625 5.99432 125.625H3.125V128.665ZM14.2134 128.04H17.3384C18.6168 128.04 19.5946 128.364 20.2717 129.013C20.9487 129.661 21.2873 130.483 21.2873 131.477C21.2873 132.131 21.1358 132.725 20.8327 133.26C20.5297 133.79 20.0846 134.214 19.4975 134.531C18.9104 134.844 18.1907 135 17.3384 135H12.7646V124.091H14.4407V133.438H17.3384C18.0013 133.438 18.5458 133.262 18.9719 132.912C19.3981 132.562 19.6112 132.112 19.6112 131.562C19.6112 130.985 19.3981 130.514 18.9719 130.149C18.5458 129.785 18.0013 129.602 17.3384 129.602H14.2134V128.04ZM23.0202 135V124.091H24.6964V135H23.0202ZM27.7646 135V124.091H36.3441V135H34.668V125.653H29.4407V135H27.7646ZM43.837 135.227C42.8522 135.227 41.988 134.993 41.2447 134.524C40.506 134.055 39.9284 133.4 39.5117 132.557C39.0998 131.714 38.8938 130.729 38.8938 129.602C38.8938 128.466 39.0998 127.474 39.5117 126.626C39.9284 125.779 40.506 125.121 41.2447 124.652C41.988 124.183 42.8522 123.949 43.837 123.949C44.8219 123.949 45.6836 124.183 46.4222 124.652C47.1656 125.121 47.7433 125.779 48.1552 126.626C48.5719 127.474 48.7802 128.466 48.7802 129.602C48.7802 130.729 48.5719 131.714 48.1552 132.557C47.7433 133.4 47.1656 134.055 46.4222 134.524C45.6836 134.993 44.8219 135.227 43.837 135.227ZM43.837 133.722C44.5851 133.722 45.2006 133.53 45.6836 133.146C46.1665 132.763 46.524 132.259 46.756 131.634C46.988 131.009 47.104 130.331 47.104 129.602C47.104 128.873 46.988 128.194 46.756 127.564C46.524 126.934 46.1665 126.425 45.6836 126.037C45.2006 125.649 44.5851 125.455 43.837 125.455C43.0889 125.455 42.4734 125.649 41.9904 126.037C41.5075 126.425 41.15 126.934 40.918 127.564C40.686 128.194 40.57 128.873 40.57 129.602C40.57 130.331 40.686 131.009 40.918 131.634C41.15 132.259 41.5075 132.763 41.9904 133.146C42.4734 133.53 43.0889 133.722 43.837 133.722ZM50.3729 135V133.438H50.7706C51.0973 133.438 51.3696 133.374 51.5874 133.246C51.8052 133.113 51.9804 132.884 52.1129 132.557C52.2502 132.225 52.3544 131.766 52.4254 131.179C52.5012 130.587 52.5556 129.834 52.5888 128.92L52.7876 124.091H60.0604V135H58.3842V125.653H54.3786L54.2081 129.545C54.1702 130.44 54.0897 131.229 53.9666 131.911C53.8482 132.588 53.666 133.156 53.4197 133.615C53.1783 134.074 52.8563 134.42 52.4538 134.652C52.0514 134.884 51.5471 135 50.9411 135H50.3729ZM70.4368 128.778V130.341H64.4141V128.778H70.4368ZM64.8118 124.091V135H63.1357V124.091H64.8118ZM71.7152 124.091V135H70.0391V124.091H71.7152ZM79.3501 135.227C78.299 135.227 77.3923 134.995 76.63 134.531C75.8724 134.062 75.2876 133.409 74.8757 132.571C74.4685 131.728 74.2649 130.748 74.2649 129.631C74.2649 128.513 74.4685 127.528 74.8757 126.676C75.2876 125.819 75.8606 125.152 76.5945 124.673C77.3331 124.19 78.1948 123.949 79.1797 123.949C79.7479 123.949 80.3089 124.044 80.8629 124.233C81.4169 124.422 81.9212 124.73 82.3757 125.156C82.8303 125.578 83.1925 126.136 83.4624 126.832C83.7322 127.528 83.8672 128.385 83.8672 129.403V130.114H75.4581V128.665H82.1626C82.1626 128.049 82.0395 127.5 81.7933 127.017C81.5518 126.534 81.2062 126.153 80.7564 125.874C80.3113 125.594 79.7857 125.455 79.1797 125.455C78.5121 125.455 77.9344 125.62 77.4467 125.952C76.9638 126.278 76.5921 126.705 76.3317 127.23C76.0713 127.756 75.9411 128.319 75.9411 128.92V129.886C75.9411 130.71 76.0831 131.409 76.3672 131.982C76.656 132.55 77.0561 132.983 77.5675 133.281C78.0788 133.575 78.6731 133.722 79.3501 133.722C79.7905 133.722 80.1882 133.66 80.5433 133.537C80.9032 133.409 81.2133 133.22 81.4737 132.969C81.7341 132.713 81.9354 132.396 82.0774 132.017L83.6967 132.472C83.5263 133.021 83.2398 133.504 82.8374 133.92C82.4349 134.332 81.9377 134.654 81.3459 134.886C80.754 135.114 80.0888 135.227 79.3501 135.227ZM93.718 128.778V130.341H87.6953V128.778H93.718ZM88.093 124.091V135H86.4169V124.091H88.093ZM94.9964 124.091V135H93.3203V124.091H94.9964ZM105.359 128.778V130.341H99.3359V128.778H105.359ZM99.7337 124.091V135H98.0575V124.091H99.7337ZM106.637 124.091V135H104.961V124.091H106.637ZM111.147 128.04H114.272C115.55 128.04 116.528 128.364 117.205 129.013C117.882 129.661 118.221 130.483 118.221 131.477C118.221 132.131 118.069 132.725 117.766 133.26C117.463 133.79 117.018 134.214 116.431 134.531C115.844 134.844 115.124 135 114.272 135H109.698V124.091H111.374V133.438H114.272C114.935 133.438 115.479 133.262 115.906 132.912C116.332 132.562 116.545 132.112 116.545 131.562C116.545 130.985 116.332 130.514 115.906 130.149C115.479 129.785 114.935 129.602 114.272 129.602H111.147V128.04ZM119.954 135V124.091H121.63V135H119.954ZM125.948 124.091L128.562 128.551L131.175 124.091H133.107L129.585 129.545L133.107 135H131.175L128.562 130.767L125.948 135H124.016L127.482 129.545L124.016 124.091H125.948ZM141.124 135V124.091H149.703V135H148.027V125.653H142.8V135H141.124ZM152.765 139.091V124.091H154.384V125.824H154.583C154.706 125.634 154.876 125.393 155.094 125.099C155.317 124.801 155.634 124.536 156.046 124.304C156.462 124.067 157.026 123.949 157.736 123.949C158.655 123.949 159.464 124.179 160.165 124.638C160.866 125.097 161.413 125.748 161.806 126.591C162.199 127.434 162.395 128.428 162.395 129.574C162.395 130.729 162.199 131.731 161.806 132.578C161.413 133.421 160.868 134.074 160.172 134.538C159.476 134.998 158.674 135.227 157.765 135.227C157.064 135.227 156.503 135.111 156.081 134.879C155.66 134.643 155.336 134.375 155.108 134.077C154.881 133.774 154.706 133.523 154.583 133.324H154.441V139.091H152.765ZM154.412 129.545C154.412 130.369 154.533 131.096 154.775 131.726C155.016 132.351 155.369 132.841 155.833 133.196C156.297 133.546 156.865 133.722 157.537 133.722C158.238 133.722 158.823 133.537 159.292 133.168C159.765 132.794 160.12 132.292 160.357 131.662C160.598 131.027 160.719 130.322 160.719 129.545C160.719 128.778 160.601 128.087 160.364 127.472C160.132 126.851 159.779 126.361 159.306 126.001C158.837 125.637 158.248 125.455 157.537 125.455C156.855 125.455 156.283 125.627 155.819 125.973C155.355 126.314 155.004 126.792 154.767 127.408C154.531 128.018 154.412 128.731 154.412 129.545ZM169.384 135.227C168.399 135.227 167.535 134.993 166.792 134.524C166.053 134.055 165.475 133.4 165.059 132.557C164.647 131.714 164.441 130.729 164.441 129.602C164.441 128.466 164.647 127.474 165.059 126.626C165.475 125.779 166.053 125.121 166.792 124.652C167.535 124.183 168.399 123.949 169.384 123.949C170.369 123.949 171.23 124.183 171.969 124.652C172.712 125.121 173.29 125.779 173.702 126.626C174.119 127.474 174.327 128.466 174.327 129.602C174.327 130.729 174.119 131.714 173.702 132.557C173.29 133.4 172.712 134.055 171.969 134.524C171.23 134.993 170.369 135.227 169.384 135.227ZM169.384 133.722C170.132 133.722 170.748 133.53 171.23 133.146C171.713 132.763 172.071 132.259 172.303 131.634C172.535 131.009 172.651 130.331 172.651 129.602C172.651 128.873 172.535 128.194 172.303 127.564C172.071 126.934 171.713 126.425 171.23 126.037C170.748 125.649 170.132 125.455 169.384 125.455C168.636 125.455 168.02 125.649 167.537 126.037C167.054 126.425 166.697 126.934 166.465 127.564C166.233 128.194 166.117 128.873 166.117 129.602C166.117 130.331 166.233 131.009 166.465 131.634C166.697 132.259 167.054 132.763 167.537 133.146C168.02 133.53 168.636 133.722 169.384 133.722ZM181.46 135.227C180.408 135.227 179.502 134.995 178.739 134.531C177.982 134.062 177.397 133.409 176.985 132.571C176.578 131.728 176.374 130.748 176.374 129.631C176.374 128.513 176.578 127.528 176.985 126.676C177.397 125.819 177.97 125.152 178.704 124.673C179.442 124.19 180.304 123.949 181.289 123.949C181.857 123.949 182.418 124.044 182.972 124.233C183.526 124.422 184.031 124.73 184.485 125.156C184.94 125.578 185.302 126.136 185.572 126.832C185.842 127.528 185.977 128.385 185.977 129.403V130.114H177.567V128.665H184.272C184.272 128.049 184.149 127.5 183.903 127.017C183.661 126.534 183.316 126.153 182.866 125.874C182.421 125.594 181.895 125.455 181.289 125.455C180.621 125.455 180.044 125.62 179.556 125.952C179.073 126.278 178.701 126.705 178.441 127.23C178.181 127.756 178.05 128.319 178.05 128.92V129.886C178.05 130.71 178.192 131.409 178.477 131.982C178.765 132.55 179.165 132.983 179.677 133.281C180.188 133.575 180.782 133.722 181.46 133.722C181.9 133.722 182.298 133.66 182.653 133.537C183.013 133.409 183.323 133.22 183.583 132.969C183.844 132.713 184.045 132.396 184.187 132.017L185.806 132.472C185.636 133.021 185.349 133.504 184.947 133.92C184.544 134.332 184.047 134.654 183.455 134.886C182.863 135.114 182.198 135.227 181.46 135.227ZM188.526 135V124.091H190.202V128.835H191.31L195.231 124.091H197.39L192.987 129.347L197.447 135H195.288L191.708 130.398H190.202V135H188.526ZM198.643 125.653V124.091H207.507V125.653H203.928V135H202.251V125.653H198.643ZM212.596 135.256C211.905 135.256 211.277 135.125 210.714 134.865C210.15 134.6 209.703 134.219 209.371 133.722C209.04 133.22 208.874 132.614 208.874 131.903C208.874 131.278 208.997 130.772 209.244 130.384C209.49 129.991 209.819 129.683 210.231 129.46C210.643 129.238 211.097 129.072 211.594 128.963C212.096 128.849 212.601 128.759 213.107 128.693C213.77 128.608 214.308 128.544 214.719 128.501C215.136 128.454 215.439 128.376 215.629 128.267C215.823 128.158 215.92 127.969 215.92 127.699V127.642C215.92 126.941 215.728 126.397 215.344 126.009C214.966 125.62 214.39 125.426 213.619 125.426C212.818 125.426 212.191 125.601 211.737 125.952C211.282 126.302 210.962 126.676 210.778 127.074L209.187 126.506C209.471 125.843 209.85 125.327 210.323 124.957C210.801 124.583 211.322 124.323 211.886 124.176C212.454 124.025 213.013 123.949 213.562 123.949C213.912 123.949 214.315 123.991 214.769 124.077C215.228 124.157 215.671 124.325 216.097 124.581C216.528 124.837 216.886 125.223 217.17 125.739C217.454 126.255 217.596 126.946 217.596 127.812V135H215.92V133.523H215.835C215.721 133.759 215.531 134.013 215.266 134.283C215.001 134.553 214.648 134.782 214.208 134.972C213.768 135.161 213.23 135.256 212.596 135.256ZM212.852 133.75C213.514 133.75 214.073 133.62 214.528 133.359C214.987 133.099 215.333 132.763 215.565 132.351C215.801 131.939 215.92 131.506 215.92 131.051V129.517C215.849 129.602 215.692 129.68 215.451 129.751C215.214 129.818 214.94 129.877 214.627 129.929C214.319 129.976 214.019 130.019 213.725 130.057C213.436 130.09 213.202 130.118 213.022 130.142C212.586 130.199 212.179 130.291 211.8 130.419C211.426 130.542 211.123 130.729 210.891 130.98C210.664 131.226 210.55 131.562 210.55 131.989C210.55 132.571 210.766 133.011 211.197 133.31C211.632 133.603 212.184 133.75 212.852 133.75Z" fill="#1D1D1D"/>
<path d="M64.0824 91.0767L63.0734 93.9019L63.0815 93.9048L63.0897 93.9077L64.0824 91.0767ZM54.3523 84.8977L52.2309 87.0191L52.2398 87.0279L54.3523 84.8977ZM47.6406 73.7472L44.8125 74.7479L44.8141 74.7525L47.6406 73.7472ZM45.2259 56.8793L42.2259 56.8674L42.2259 56.8685L45.2259 56.8793ZM47.4276 40.7571L50.2983 41.6283L50.2995 41.6244L47.4276 40.7571ZM53.6065 28.5767L51.2736 26.6905L51.2655 26.7006L53.6065 28.5767ZM63.2656 20.9418L64.5381 23.6586L64.5455 23.6551L63.2656 20.9418ZM89.331 21.2614L87.9633 23.9315L87.9731 23.9365L87.9828 23.9414L89.331 21.2614ZM98.706 29.2159L96.2507 30.9398L96.2565 30.948L98.706 29.2159ZM102.861 40.2954V43.2954H106.191L105.845 39.9832L102.861 40.2954ZM85.5668 40.2954L82.6411 40.959L83.171 43.2954H85.5668V40.2954ZM82.1222 35.0753L80.4197 37.5455L80.4388 37.5586L80.4581 37.5714L82.1222 35.0753ZM65.8935 39.0526L63.2877 37.5658L63.2809 37.578L65.8935 39.0526ZM62.5554 54.5355L59.5555 54.5135L59.5333 57.5355H62.5554V54.5355ZM63.017 54.5355V57.5355H64.9453L65.7461 55.7814L63.017 54.5355ZM67.3139 48.9247L69.2373 51.227H69.2373L67.3139 48.9247ZM73.7415 45.3381L74.7152 48.1757L74.7232 48.1729L74.7313 48.1701L73.7415 45.3381ZM93.0242 47.0781L91.4753 49.6474L93.0242 47.0781ZM100.872 55.3523L98.233 56.7788L98.2371 56.7863L100.872 55.3523ZM103.678 67.3196L100.678 67.3038L100.678 67.3187L100.678 67.3336L103.678 67.3196ZM100.126 80.7429L102.677 82.323L102.681 82.3161L100.126 80.7429ZM90.1832 89.7628L88.8237 87.0885L88.8176 87.0916L90.1832 89.7628ZM86.6321 67.8878L83.6323 67.8559L83.6319 67.888L83.6323 67.92L86.6321 67.8878ZM85.2117 61.9574L82.5807 63.399L82.5883 63.4128L82.596 63.4265L85.2117 61.9574ZM81.2344 57.8381L79.6803 60.4041L79.6882 60.4089L79.6962 60.4137L81.2344 57.8381ZM67.4205 59.6847L65.2515 57.6121L65.2504 57.6132L67.4205 59.6847ZM65.0767 63.3778L67.8556 64.5082L67.8589 64.5001L67.8621 64.492L65.0767 63.3778ZM64.1889 67.9233L61.1892 67.8798L61.1887 67.918L61.1891 67.9563L64.1889 67.9233ZM65.6804 73.7827L63.0563 75.2366L65.6804 73.7827ZM69.6577 77.973L68.0774 80.523L68.0904 80.5311L68.1036 80.5391L69.6577 77.973ZM75.517 89.9943C71.8677 89.9943 68.3925 89.409 65.0751 88.2457L63.0897 93.9077C67.0639 95.3013 71.2118 95.9943 75.517 95.9943V89.9943ZM65.0914 88.2515C61.8739 87.1024 59.004 85.2857 56.4647 82.7675L52.2398 87.0279C55.3824 90.1443 58.9992 92.4469 63.0734 93.9019L65.0914 88.2515ZM56.4736 82.7764C54.0077 80.3105 51.9827 77.0029 50.4672 72.7418L44.8141 74.7525C46.5656 79.677 49.015 83.8031 52.231 87.0191L56.4736 82.7764ZM50.4688 72.7464C48.9828 68.547 48.203 63.288 48.2258 56.89L42.2259 56.8685C42.2014 63.7281 43.0314 69.7144 44.8125 74.7479L50.4688 72.7464ZM48.2258 56.8911C48.2486 51.1353 48.9539 46.0581 50.2983 41.6283L44.5568 39.8859C43.0129 44.9732 42.2505 50.644 42.2259 56.8674L48.2258 56.8911ZM50.2995 41.6244C51.6511 37.1486 53.5488 33.4459 55.9475 30.4528L51.2655 26.7006C48.3138 30.3837 46.0923 34.8012 44.5556 39.8898L50.2995 41.6244ZM55.9394 30.4629C58.3639 27.4642 61.2257 25.2099 64.538 23.6585L61.9932 18.225C57.8245 20.1774 54.2469 23.0131 51.2736 26.6905L55.9394 30.4629ZM64.5455 23.6551C67.8655 22.089 71.6233 21.2784 75.8722 21.2784V15.2784C70.8407 15.2784 66.1941 16.2434 61.9858 18.2285L64.5455 23.6551ZM75.8722 21.2784C80.5659 21.2784 84.5694 22.1931 87.9633 23.9315L90.6986 18.5912C86.3274 16.3523 81.3584 15.2784 75.8722 15.2784V21.2784ZM87.9828 23.9414C91.4796 25.7004 94.2118 28.0359 96.2507 30.9398L101.161 27.492C98.5126 23.7198 94.9949 20.7523 90.6791 18.5813L87.9828 23.9414ZM96.2565 30.948C98.3008 33.839 99.504 37.0424 99.8771 40.6077L105.845 39.9832C105.365 35.4046 103.799 31.2217 101.155 27.4838L96.2565 30.948ZM102.861 37.2954H85.5668V43.2954H102.861V37.2954ZM88.4925 39.6319C87.8207 36.67 86.2703 34.2352 83.7863 32.5791L80.4581 37.5714C81.5251 38.2828 82.2712 39.3281 82.6411 40.959L88.4925 39.6319ZM83.8246 32.6051C81.5063 31.0074 78.81 30.2642 75.8722 30.2642V36.2642C77.7639 36.2642 79.2342 36.7284 80.4197 37.5455L83.8246 32.6051ZM75.8722 30.2642C70.3465 30.2642 66.0245 32.7692 63.2878 37.5659L68.4992 40.5392C70.1658 37.6181 72.4963 36.2642 75.8722 36.2642V30.2642ZM63.2809 37.578C60.7637 42.0377 59.605 47.759 59.5555 54.5135L65.5553 54.5575C65.6005 48.3858 66.6671 43.7852 68.5061 40.5271L63.2809 37.578ZM62.5554 57.5355H63.017V51.5355H62.5554V57.5355ZM65.7461 55.7814C66.5508 54.0187 67.7048 52.5073 69.2373 51.227L65.3905 46.6224C63.1825 48.4671 61.4719 50.6962 60.288 53.2896L65.7461 55.7814ZM69.2373 51.227C70.8131 49.9105 72.6303 48.8911 74.7152 48.1757L72.7678 42.5005C70.0231 43.4423 67.5552 44.8139 65.3905 46.6224L69.2373 51.227ZM74.7313 48.1701C76.8347 47.4349 79.0791 47.0597 81.483 47.0597V41.0597C78.4417 41.0597 75.5251 41.5367 72.7517 42.5061L74.7313 48.1701ZM81.483 47.0597C85.3591 47.0597 88.6581 47.9491 91.4753 49.6474L94.573 44.5089C90.7141 42.1826 86.319 41.0597 81.483 41.0597V47.0597ZM91.4753 49.6474C94.344 51.3767 96.5881 53.7357 98.233 56.7788L103.511 53.9257C101.368 49.9613 98.3804 46.8041 94.573 44.5089L91.4753 49.6474ZM98.2371 56.7863C99.8578 59.7644 100.699 63.2426 100.678 67.3038L106.678 67.3354C106.703 62.4004 105.674 57.9003 103.507 53.9182L98.2371 56.7863ZM100.678 67.3336C100.699 71.9038 99.6373 75.8161 97.572 79.1697L102.681 82.3161C105.398 77.9045 106.704 72.868 106.678 67.3056L100.678 67.3336ZM97.5763 79.1628C95.4884 82.5323 92.596 85.1708 88.8237 87.0885L91.5428 92.437C96.2458 90.0461 99.9823 86.6712 102.677 82.323L97.5763 79.1628ZM88.8176 87.0916C85.0947 88.9949 80.6888 89.9943 75.517 89.9943V95.9943C81.4722 95.9943 86.8438 94.8393 91.5488 92.434L88.8176 87.0916ZM75.4105 82.5C78.0588 82.5 80.5282 81.8678 82.7371 80.5486L79.6606 75.3974C78.4604 76.1142 77.0709 76.5 75.4105 76.5V82.5ZM82.7371 80.5486C84.9004 79.2566 86.6109 77.4829 87.8358 75.2721L82.5875 72.3643C81.8711 73.6572 80.9064 74.6534 79.6606 75.3974L82.7371 80.5486ZM87.8358 75.2721C89.0827 73.0215 89.6606 70.5238 89.6319 67.8555L83.6323 67.92C83.6509 69.6551 83.2818 71.1111 82.5875 72.3643L87.8358 75.2721ZM89.6319 67.9197C89.6605 65.2348 89.0857 62.7288 87.8273 60.4883L82.596 63.4265C83.2789 64.6424 83.6511 66.09 83.6323 67.8559L89.6319 67.9197ZM87.8426 60.5158C86.6368 58.3153 84.9323 56.5522 82.7726 55.2624L79.6962 60.4137C80.9456 61.1599 81.8925 62.143 82.5807 63.399L87.8426 60.5158ZM82.7885 55.272C80.5893 53.9401 78.1109 53.3111 75.446 53.3111V59.3111C77.1372 59.3111 78.5177 59.7001 79.6803 60.4041L82.7885 55.272ZM75.446 53.3111C73.4767 53.3111 71.5903 53.6807 69.8196 54.4439L72.1946 59.9538C73.1702 59.5333 74.243 59.3111 75.446 59.3111V53.3111ZM69.8196 54.4439C68.0825 55.1927 66.5517 56.2514 65.2515 57.6121L69.5894 61.7572C70.3252 60.9873 71.1855 60.3888 72.1946 59.9538L69.8196 54.4439ZM65.2504 57.6132C63.9756 58.9488 62.9927 60.5102 62.2913 62.2637L67.8621 64.492C68.2971 63.4045 68.8767 62.5039 69.5905 61.7561L65.2504 57.6132ZM62.2978 62.2474C61.5778 64.0175 61.2179 65.9047 61.1892 67.8798L67.1886 67.9668C67.2073 66.6749 67.4392 65.5318 67.8556 64.5082L62.2978 62.2474ZM61.1891 67.9563C61.2178 70.5694 61.8264 73.0169 63.0563 75.2366L68.3045 72.3288C67.5931 71.0447 67.2074 69.5859 67.1887 67.8903L61.1891 67.9563ZM63.0563 75.2366C64.2721 77.431 65.9548 79.2076 68.0774 80.523L71.238 75.423C69.9988 74.6551 69.03 73.6381 68.3045 72.3288L63.0563 75.2366ZM68.1036 80.5391C70.2976 81.8679 72.7627 82.5 75.4105 82.5V76.5C73.7496 76.5 72.3794 76.1141 71.2118 75.4069L68.1036 80.5391ZM112.76 79.9261H109.76V82.9261H112.76V79.9261ZM112.76 66.2188L110.227 64.6112L109.76 65.3471V66.2188H112.76ZM142.554 19.2727V16.2727H140.904L140.021 17.6652L142.554 19.2727ZM154.734 19.2727H157.734V16.2727H154.734V19.2727ZM154.734 37.8807V40.8807H157.734V37.8807H154.734ZM147.667 37.8807V34.8807H146.013L145.13 36.2796L147.667 37.8807ZM130.231 65.5085L127.694 63.9074L127.231 64.641V65.5085H130.231ZM130.231 66.0767H127.231V69.0767H130.231V66.0767ZM173.377 66.0767H176.377V63.0767H173.377V66.0767ZM173.377 79.9261V82.9261H176.377V79.9261H173.377ZM147.88 92H144.88V95H147.88V92ZM147.88 75.7358L144.886 75.5586L144.88 75.6471V75.7358H147.88ZM148.235 69.7344L151.23 69.9116L151.235 69.8231V69.7344H148.235ZM148.235 19.2727V16.2727H145.235V19.2727H148.235ZM164.677 19.2727H167.677V16.2727H164.677V19.2727ZM164.677 92V95H167.677V92H164.677ZM115.76 79.9261V66.2188H109.76V79.9261H115.76ZM115.293 67.8263L145.087 20.8803L140.021 17.6652L110.227 64.6112L115.293 67.8263ZM142.554 22.2727H154.734V16.2727H142.554V22.2727ZM151.734 19.2727V37.8807H157.734V19.2727H151.734ZM154.734 34.8807H147.667V40.8807H154.734V34.8807ZM145.13 36.2796L127.694 63.9074L132.768 67.1096L150.204 39.4818L145.13 36.2796ZM127.231 65.5085V66.0767H133.231V65.5085H127.231ZM130.231 69.0767H173.377V63.0767H130.231V69.0767ZM170.377 66.0767V79.9261H176.377V66.0767H170.377ZM173.377 76.9261H112.76V82.9261H173.377V76.9261ZM150.88 92V75.7358H144.88V92H150.88ZM150.875 75.913L151.23 69.9116L145.241 69.5572L144.886 75.5586L150.875 75.913ZM151.235 69.7344V19.2727H145.235V69.7344H151.235ZM148.235 22.2727H164.677V16.2727H148.235V22.2727ZM161.677 19.2727V92H167.677V19.2727H161.677ZM164.677 89H147.88V95H164.677V89Z" fill="#EDAD73"/>
</svg>
