<svg width="129" height="140" viewBox="0 0 129 140" fill="none" xmlns="http://www.w3.org/2000/svg">
<path d="M45.9915 19.2727H48.9915V16.2727H45.9915V19.2727ZM45.9915 92V95H48.9915V92H45.9915ZM28.4489 92H25.4489V95H28.4489V92ZM28.4489 35.679H31.4489V32.679H28.4489V35.679ZM28.0227 35.679V32.679H27.1783L26.4579 33.1194L28.0227 35.679ZM11.7585 45.6222H8.75852V50.9724L13.3233 48.1817L11.7585 45.6222ZM11.7585 30.4233L10.1744 27.8756L8.75852 28.756V30.4233H11.7585ZM29.6918 19.2727V16.2727H28.8351L28.1077 16.7251L29.6918 19.2727ZM42.9915 19.2727V92H48.9915V19.2727H42.9915ZM45.9915 89H28.4489V95H45.9915V89ZM31.4489 92V35.679H25.4489V92H31.4489ZM28.4489 32.679H28.0227V38.679H28.4489V32.679ZM26.4579 33.1194L10.1937 43.0626L13.3233 48.1817L29.5875 38.2385L26.4579 33.1194ZM14.7585 45.6222V30.4233H8.75852V45.6222H14.7585ZM13.3426 32.971L31.2759 21.8204L28.1077 16.7251L10.1744 27.8756L13.3426 32.971ZM29.6918 22.2727H45.9915V16.2727H29.6918V22.2727ZM75.7766 90.1179L74.5105 92.8376L75.7766 90.1179ZM66.011 82.1989L63.5582 83.9262L63.5663 83.9377L66.011 82.1989ZM62.3178 70.6222V67.6222H59.2519L59.3185 70.6874L62.3178 70.6222ZM79.3633 70.6222L82.3591 70.4631L82.2082 67.6222H79.3633V70.6222ZM82.6303 77.0852L80.7529 79.4252L80.7613 79.4319L80.7696 79.4385L82.6303 77.0852ZM95.7695 78.044L94.285 75.4371L95.7695 78.044ZM99.7823 73.9602L102.406 75.4141L102.411 75.4067L102.415 75.3992L99.7823 73.9602ZM101.203 67.8523L98.2029 67.822L98.2026 67.8526L98.2029 67.8832L101.203 67.8523ZM99.7468 61.7088L97.1227 63.1627L97.1301 63.1762L97.1377 63.1896L99.7468 61.7088ZM95.6985 57.625L94.1869 60.2163L94.2081 60.2287L94.2294 60.2407L95.6985 57.625ZM89.8036 56.1335L89.7699 59.1333L89.7868 59.1335H89.8036V56.1335ZM83.8022 57.5185L82.4606 54.8352L82.4538 54.8386L82.447 54.842L83.8022 57.5185ZM79.5408 61.3892L78.9876 64.3377L81.0487 64.7245L82.1199 62.9217L79.5408 61.3892ZM64.0224 58.4773L61.0321 58.2362L60.8151 60.9278L63.4691 61.4258L64.0224 58.4773ZM67.1829 19.2727V16.2727H64.415L64.1926 19.0317L67.1829 19.2727ZM113.845 19.2727H116.845V16.2727H113.845V19.2727ZM113.845 33.4418V36.4418H116.845V33.4418H113.845ZM81.636 33.4418V30.4418H78.9138L78.6501 33.1512L81.636 33.4418ZM79.967 50.5938L76.9811 50.3032L76.6609 53.5938H79.967V50.5938ZM80.3931 50.5938V53.5938H82.0917L82.9656 52.1372L80.3931 50.5938ZM86.217 45.6222L87.5299 48.3196L87.5397 48.3148L86.217 45.6222ZM107.062 46.6875L105.524 49.2631L105.534 49.2694L105.545 49.2756L107.062 46.6875ZM115.159 55.0682L112.53 56.5133L112.533 56.5199L112.537 56.5266L115.159 55.0682ZM114.591 80.6364L112.033 79.0676L112.026 79.079L114.591 80.6364ZM104.718 89.7273L106.096 92.3923L106.102 92.3894L104.718 89.7273ZM89.9102 89.9943C84.9719 89.9943 80.7046 89.1028 77.0427 87.3982L74.5105 92.8376C79.0874 94.9682 84.2423 95.9943 89.9102 95.9943V89.9943ZM77.0427 87.3982C73.3456 85.6771 70.5157 83.3563 68.4557 80.46L63.5663 83.9377C66.2885 87.765 69.969 90.7235 74.5105 92.8376L77.0427 87.3982ZM68.4638 80.4715C66.4606 77.627 65.3997 74.3544 65.3171 70.557L59.3185 70.6874C59.4254 75.602 60.8265 80.0473 63.5582 83.9262L68.4638 80.4715ZM62.3178 73.6222H79.3633V67.6222H62.3178V73.6222ZM76.3675 70.7812C76.5535 74.2839 78.0309 77.2412 80.7529 79.4252L84.5077 74.7453C83.1578 73.6622 82.4572 72.3108 82.3591 70.4631L76.3675 70.7812ZM80.7696 79.4385C83.3817 81.5038 86.4791 82.5 89.9102 82.5V76.5C87.7068 76.5 85.951 75.8863 84.491 74.732L80.7696 79.4385ZM89.9102 82.5C92.5674 82.5 95.0438 81.9096 97.2541 80.651L94.285 75.4371C93.0862 76.1198 91.6563 76.5 89.9102 76.5V82.5ZM97.2541 80.651C99.4476 79.4019 101.175 77.637 102.406 75.4141L97.1582 72.5063C96.4485 73.7872 95.5006 74.7449 94.285 75.4371L97.2541 80.651ZM102.415 75.3992C103.663 73.1153 104.231 70.5608 104.203 67.8214L98.2029 67.8832C98.222 69.7366 97.8427 71.254 97.15 72.5212L102.415 75.3992ZM104.203 67.8826C104.231 65.097 103.652 62.5109 102.356 60.228L97.1377 63.1896C97.8307 64.4105 98.2221 65.92 98.2029 67.822L104.203 67.8826ZM102.371 60.2549C101.133 58.0214 99.3865 56.2555 97.1676 55.0093L94.2294 60.2407C95.467 60.9357 96.4188 61.8924 97.1227 63.1627L102.371 60.2549ZM97.2101 55.0337C94.9904 53.7388 92.4909 53.1335 89.8036 53.1335V59.1335C91.5671 59.1335 92.9975 59.5225 94.1869 60.2163L97.2101 55.0337ZM89.8373 53.1337C87.2508 53.1046 84.7791 53.6759 82.4606 54.8352L85.1438 60.2017C86.6132 59.4671 88.1424 59.115 89.7699 59.1333L89.8373 53.1337ZM82.447 54.842C80.1228 56.0188 78.2531 57.6835 76.9618 59.8567L82.1199 62.9217C82.7699 61.8278 83.7411 60.9121 85.1574 60.1949L82.447 54.842ZM80.0941 58.4407L64.5756 55.5287L63.4691 61.4258L78.9876 64.3377L80.0941 58.4407ZM67.0127 58.7183L70.1732 19.5138L64.1926 19.0317L61.0321 58.2362L67.0127 58.7183ZM67.1829 22.2727H113.845V16.2727H67.1829V22.2727ZM110.845 19.2727V33.4418H116.845V19.2727H110.845ZM113.845 30.4418H81.636V36.4418H113.845V30.4418ZM78.6501 33.1512L76.9811 50.3032L82.9529 50.8843L84.6219 33.7323L78.6501 33.1512ZM79.967 53.5938H80.3931V47.5938H79.967V53.5938ZM82.9656 52.1372C83.803 50.7415 85.2382 49.435 87.5299 48.3196L84.9041 42.9247C81.8453 44.4135 79.398 46.4213 77.8206 49.0503L82.9656 52.1372ZM87.5397 48.3148C89.7722 47.2182 92.3751 46.6335 95.4144 46.6335V40.6335C91.5882 40.6335 88.0595 41.3746 84.8943 42.9295L87.5397 48.3148ZM95.4144 46.6335C99.283 46.6335 102.624 47.5314 105.524 49.2631L108.6 44.1119C104.682 41.7716 100.258 40.6335 95.4144 40.6335V46.6335ZM105.545 49.2756C108.499 51.007 110.819 53.4002 112.53 56.5133L117.788 53.6231C115.569 49.5865 112.491 46.3926 108.579 44.0994L105.545 49.2756ZM112.537 56.5266C114.247 59.6005 115.142 63.1824 115.142 67.3551H121.142C121.142 62.2949 120.048 57.6855 117.78 53.6098L112.537 56.5266ZM115.142 67.3551C115.142 71.8557 114.082 75.7286 112.033 79.0676L117.148 82.2052C119.834 77.8263 121.142 72.8451 121.142 67.3551H115.142ZM112.026 79.079C109.984 82.441 107.115 85.1014 103.335 87.0651L106.102 92.3894C110.797 89.9497 114.509 86.5495 117.155 82.1937L112.026 79.079ZM103.341 87.0622C99.6275 88.9815 95.1808 89.9943 89.9102 89.9943V95.9943C95.9558 95.9943 101.381 94.8291 106.096 92.3923L103.341 87.0622Z" fill="#EDAD73"/>
<path d="M0.568182 135V133.438H0.965909C1.29261 133.438 1.56487 133.374 1.78267 133.246C2.00047 133.113 2.17566 132.884 2.30824 132.557C2.44555 132.225 2.54972 131.766 2.62074 131.179C2.6965 130.587 2.75095 129.834 2.78409 128.92L2.98295 124.091H10.2557V135H8.57955V125.653H4.57386L4.40341 129.545C4.36553 130.44 4.28504 131.229 4.16193 131.911C4.04356 132.588 3.86127 133.156 3.61506 133.615C3.37358 134.074 3.05161 134.42 2.64915 134.652C2.24669 134.884 1.74242 135 1.13636 135H0.568182ZM17.9048 135.227C16.8537 135.227 15.947 134.995 15.1847 134.531C14.4271 134.062 13.8423 133.409 13.4304 132.571C13.0232 131.728 12.8196 130.748 12.8196 129.631C12.8196 128.513 13.0232 127.528 13.4304 126.676C13.8423 125.819 14.4152 125.152 15.1491 124.673C15.8878 124.19 16.7495 123.949 17.7344 123.949C18.3026 123.949 18.8636 124.044 19.4176 124.233C19.9716 124.422 20.4759 124.73 20.9304 125.156C21.3849 125.578 21.7472 126.136 22.017 126.832C22.2869 127.528 22.4219 128.385 22.4219 129.403V130.114H14.0128V128.665H20.7173C20.7173 128.049 20.5942 127.5 20.348 127.017C20.1065 126.534 19.7609 126.153 19.3111 125.874C18.866 125.594 18.3404 125.455 17.7344 125.455C17.0668 125.455 16.4891 125.62 16.0014 125.952C15.5185 126.278 15.1468 126.705 14.8864 127.23C14.6259 127.756 14.4957 128.319 14.4957 128.92V129.886C14.4957 130.71 14.6378 131.409 14.9219 131.982C15.2107 132.55 15.6108 132.983 16.1222 133.281C16.6335 133.575 17.2277 133.722 17.9048 133.722C18.3452 133.722 18.7429 133.66 19.098 133.537C19.4579 133.409 19.768 133.22 20.0284 132.969C20.2888 132.713 20.4901 132.396 20.6321 132.017L22.2514 132.472C22.081 133.021 21.7945 133.504 21.392 133.92C20.9896 134.332 20.4924 134.654 19.9006 134.886C19.3087 135.114 18.6435 135.227 17.9048 135.227ZM23.956 125.653V124.091H32.8196V125.653H29.2401V135H27.5639V125.653H23.956ZM48.1907 128.778V130.341H42.168V128.778H48.1907ZM42.5657 124.091V135H40.8896V124.091H42.5657ZM49.4691 124.091V135H47.793V124.091H49.4691ZM55.7404 135.256C55.0491 135.256 54.4218 135.125 53.8583 134.865C53.2949 134.6 52.8474 134.219 52.516 133.722C52.1845 133.22 52.0188 132.614 52.0188 131.903C52.0188 131.278 52.1419 130.772 52.3881 130.384C52.6344 129.991 52.9634 129.683 53.3754 129.46C53.7873 129.238 54.2418 129.072 54.739 128.963C55.2409 128.849 55.7451 128.759 56.2518 128.693C56.9147 128.608 57.4521 128.544 57.864 128.501C58.2807 128.454 58.5837 128.376 58.7731 128.267C58.9672 128.158 59.0643 127.969 59.0643 127.699V127.642C59.0643 126.941 58.8725 126.397 58.489 126.009C58.1102 125.62 57.5349 125.426 56.7631 125.426C55.9629 125.426 55.3356 125.601 54.881 125.952C54.4265 126.302 54.1069 126.676 53.9222 127.074L52.3313 126.506C52.6154 125.843 52.9942 125.327 53.4677 124.957C53.9459 124.583 54.4667 124.323 55.0302 124.176C55.5984 124.025 56.1571 123.949 56.7063 123.949C57.0567 123.949 57.4592 123.991 57.9137 124.077C58.373 124.157 58.8157 124.325 59.2418 124.581C59.6727 124.837 60.0302 125.223 60.3143 125.739C60.5984 126.255 60.7404 126.946 60.7404 127.812V135H59.0643V133.523H58.979C58.8654 133.759 58.676 134.013 58.4109 134.283C58.1457 134.553 57.793 134.782 57.3526 134.972C56.9123 135.161 56.3749 135.256 55.7404 135.256ZM55.9961 133.75C56.659 133.75 57.2177 133.62 57.6722 133.359C58.1315 133.099 58.4772 132.763 58.7092 132.351C58.9459 131.939 59.0643 131.506 59.0643 131.051V129.517C58.9933 129.602 58.837 129.68 58.5955 129.751C58.3588 129.818 58.0842 129.877 57.7717 129.929C57.4639 129.976 57.1632 130.019 56.8697 130.057C56.5808 130.09 56.3465 130.118 56.1665 130.142C55.7309 130.199 55.3237 130.291 54.945 130.419C54.5709 130.542 54.2679 130.729 54.0359 130.98C53.8086 131.226 53.695 131.562 53.695 131.989C53.695 132.571 53.9104 133.011 54.3413 133.31C54.7769 133.603 55.3285 133.75 55.9961 133.75ZM69.4247 139.091V124.091H71.044V125.824H71.2429C71.366 125.634 71.5365 125.393 71.7543 125.099C71.9768 124.801 72.294 124.536 72.706 124.304C73.1226 124.067 73.6861 123.949 74.3963 123.949C75.3149 123.949 76.1245 124.179 76.8253 124.638C77.526 125.097 78.0729 125.748 78.4659 126.591C78.8589 127.434 79.0554 128.428 79.0554 129.574C79.0554 130.729 78.8589 131.731 78.4659 132.578C78.0729 133.421 77.5284 134.074 76.8324 134.538C76.1364 134.998 75.3338 135.227 74.4247 135.227C73.724 135.227 73.1629 135.111 72.7415 134.879C72.3201 134.643 71.9957 134.375 71.7685 134.077C71.5412 133.774 71.366 133.523 71.2429 133.324H71.1009V139.091H69.4247ZM71.0724 129.545C71.0724 130.369 71.1932 131.096 71.4347 131.726C71.6761 132.351 72.0289 132.841 72.4929 133.196C72.9569 133.546 73.5251 133.722 74.1974 133.722C74.8982 133.722 75.483 133.537 75.9517 133.168C76.4252 132.794 76.7803 132.292 77.017 131.662C77.2585 131.027 77.3793 130.322 77.3793 129.545C77.3793 128.778 77.2609 128.087 77.0241 127.472C76.7921 126.851 76.4394 126.361 75.9659 126.001C75.4972 125.637 74.9077 125.455 74.1974 125.455C73.5156 125.455 72.9427 125.627 72.4787 125.973C72.0147 126.314 71.6643 126.792 71.4276 127.408C71.1908 128.018 71.0724 128.731 71.0724 129.545ZM83.0611 128.04H86.1861C87.4645 128.04 88.4422 128.364 89.1193 129.013C89.7964 129.661 90.1349 130.483 90.1349 131.477C90.1349 132.131 89.9834 132.725 89.6804 133.26C89.3774 133.79 88.9323 134.214 88.3452 134.531C87.758 134.844 87.0384 135 86.1861 135H81.6122V124.091H83.2884V133.438H86.1861C86.849 133.438 87.3935 133.262 87.8196 132.912C88.2457 132.562 88.4588 132.112 88.4588 131.562C88.4588 130.985 88.2457 130.514 87.8196 130.149C87.3935 129.785 86.849 129.602 86.1861 129.602H83.0611V128.04ZM91.8679 135V124.091H93.544V135H91.8679ZM103.913 128.778V130.341H97.8906V128.778H103.913ZM98.2884 124.091V135H96.6122V124.091H98.2884ZM105.192 124.091V135H103.516V124.091H105.192ZM108.253 135V124.091H109.929V128.835H111.037L114.957 124.091H117.116L112.713 129.347L117.173 135H115.014L111.435 130.398H109.929V135H108.253ZM123.12 135.227C122.069 135.227 121.162 134.995 120.4 134.531C119.642 134.062 119.057 133.409 118.645 132.571C118.238 131.728 118.034 130.748 118.034 129.631C118.034 128.513 118.238 127.528 118.645 126.676C119.057 125.819 119.63 125.152 120.364 124.673C121.103 124.19 121.964 123.949 122.949 123.949C123.517 123.949 124.078 124.044 124.632 124.233C125.186 124.422 125.691 124.73 126.145 125.156C126.6 125.578 126.962 126.136 127.232 126.832C127.502 127.528 127.637 128.385 127.637 129.403V130.114H119.228V128.665H125.932C125.932 128.049 125.809 127.5 125.563 127.017C125.321 126.534 124.976 126.153 124.526 125.874C124.081 125.594 123.555 125.455 122.949 125.455C122.282 125.455 121.704 125.62 121.216 125.952C120.733 126.278 120.362 126.705 120.101 127.23C119.841 127.756 119.711 128.319 119.711 128.92V129.886C119.711 130.71 119.853 131.409 120.137 131.982C120.426 132.55 120.826 132.983 121.337 133.281C121.848 133.575 122.443 133.722 123.12 133.722C123.56 133.722 123.958 133.66 124.313 133.537C124.673 133.409 124.983 133.22 125.243 132.969C125.504 132.713 125.705 132.396 125.847 132.017L127.466 132.472C127.296 133.021 127.009 133.504 126.607 133.92C126.204 134.332 125.707 134.654 125.115 134.886C124.524 135.114 123.858 135.227 123.12 135.227Z" fill="#1D1D1D"/>
</svg>
