<svg width="40" height="42" viewBox="0 0 40 42" fill="none" xmlns="http://www.w3.org/2000/svg">
<path d="M0 41.3242C0.556497 39.6446 1.08073 38.0704 1.60497 36.4962C2.1292 34.9383 2.59698 33.356 3.19381 31.8224C3.50028 31.0434 3.4035 30.4592 3.01637 29.7289C0.903299 25.7854 0.274216 21.5578 1.00815 17.1599C1.62916 13.4354 3.20187 10.141 5.7424 7.34157C9.92822 2.74077 15.1545 0.53368 21.3324 0.793337C25.8569 0.979966 29.8573 2.6434 33.2688 5.6538C36.4465 8.45323 38.5192 11.9343 39.479 16.0725C40.2533 19.4075 40.1645 22.7263 39.2129 26.0126C38.0031 30.1752 35.6884 33.6075 32.2445 36.2203C27.4619 39.8555 22.0986 40.9834 16.2513 39.8393C14.4931 39.4985 12.8156 38.8656 11.2348 38.0055C10.9767 37.8675 10.7589 37.8351 10.4767 37.9324C7.47641 38.9062 4.4681 39.8718 1.46786 40.8374C1.01621 40.9834 0.556497 41.1376 0 41.3242ZM5.10525 36.2366C5.26656 36.196 5.33914 36.1798 5.41173 36.1554C7.29091 35.555 9.1701 34.9464 11.0573 34.3622C11.2348 34.3054 11.4767 34.354 11.6461 34.4352C12.4607 34.8409 13.243 35.3278 14.0818 35.6848C17.5337 37.1535 21.0904 37.3888 24.6875 36.3826C28.9782 35.1736 32.2687 32.6014 34.5189 28.7146C36.4465 25.3878 37.1078 21.7931 36.511 18.0119C35.7529 13.2001 33.3011 9.41883 29.2443 6.733C25.7279 4.41231 21.8566 3.62522 17.7272 4.28248C14.1705 4.85048 11.1299 6.48145 8.62167 9.09426C6.46827 11.3338 5.0246 13.9791 4.39552 17.0219C3.50028 21.3793 4.16163 25.5014 6.56505 29.2583C7.04896 30.0129 7.03283 30.589 6.74248 31.3599C6.15372 32.9422 5.66175 34.5569 5.10525 36.2366Z" fill="white"/>
<path d="M30.5266 26.2239C30.5024 27.79 29.7684 28.9828 28.2845 29.7293C26.8247 30.4596 25.3407 30.6462 23.8163 30.0457C22.4453 29.5021 21.0581 28.9747 19.7354 28.3174C17.9933 27.4492 16.5658 26.1509 15.2592 24.7147C13.8155 23.1243 12.5896 21.3553 11.5815 19.4647C10.8637 18.1259 10.4282 16.7059 10.5814 15.1479C10.7427 13.4926 11.5089 12.17 12.7993 11.1719C13.0574 10.9772 13.4445 10.8879 13.7752 10.8555C14.2027 10.823 14.6301 10.8879 15.0576 10.9204C15.4124 10.9528 15.606 11.2044 15.727 11.4965C16.0415 12.2755 16.3238 13.0544 16.6222 13.8415C16.8238 14.3689 16.9771 14.9207 17.219 15.4319C17.5175 16.0648 17.332 16.5923 16.9448 17.0791C16.6142 17.4929 16.2674 17.8905 15.8883 18.2476C15.5737 18.5478 15.5173 18.8561 15.727 19.2213C16.6545 20.8847 17.7836 22.3777 19.2757 23.5868C20.2596 24.382 21.3484 24.9743 22.4775 25.5261C22.8082 25.6884 23.1308 25.664 23.3889 25.3638C23.9454 24.7228 24.51 24.0899 25.0584 23.4407C25.4133 23.0269 25.5907 22.9457 26.0665 23.1892C27.4457 23.887 28.8087 24.6092 30.1798 25.3313C30.5024 25.5099 30.583 25.802 30.5266 26.2239Z" fill="white"/>
</svg>
