<svg width="42" height="42" viewBox="0 0 42 42" fill="none" xmlns="http://www.w3.org/2000/svg">
<path d="M28.6531 40.9214C28.3636 40.9214 28.0718 40.8936 27.7812 40.8369C27.7733 40.8357 27.7653 40.8345 27.7574 40.8331C27.3368 40.7609 17.3698 38.9794 9.87578 31.4969C3.83462 25.4652 1.79685 17.7228 1.19583 14.6265C1.08374 14.2582 1.01935 13.8742 1.00464 13.484C1.00007 13.4406 0.998875 13.3971 1.00106 13.3538C0.990329 12.1376 1.4558 10.9983 2.31578 10.1397L4.86334 7.59601C5.0124 7.44718 5.21473 7.36343 5.4254 7.36343C5.63608 7.36343 5.8384 7.44718 5.98746 7.59601L14.2314 15.8274C14.542 16.1374 14.542 16.6401 14.2314 16.9498L11.6842 19.4935C11.6192 19.5584 11.5538 19.6199 11.487 19.679C10.2971 20.734 10.0664 22.5815 10.9516 23.9753C11.8021 25.3142 12.7642 26.523 13.811 27.5682C15.051 28.806 16.5223 29.9276 18.1837 30.901C19.5425 31.6972 21.2895 31.442 22.4327 30.2805L22.4603 30.2527L25.0079 27.7092C25.3185 27.3991 25.8216 27.3991 26.132 27.7092L34.3759 35.9405C34.6866 36.2505 34.6866 36.7531 34.3759 37.0629L31.8286 39.6065C30.9755 40.4585 29.8339 40.9214 28.6531 40.9214ZM27.9883 39.2616C28.0102 39.2644 28.0321 39.2678 28.0537 39.2724C29.019 39.4724 30.01 39.1775 30.7044 38.4843L32.6895 36.5021L25.57 29.3934L23.5618 31.3985C21.9118 33.075 19.3672 33.4355 17.3791 32.2709C15.6011 31.229 14.0225 30.0247 12.6871 28.6911C11.5578 27.5636 10.5221 26.2634 9.60926 24.8259C8.31123 22.7817 8.6652 20.0585 10.4331 18.491C10.478 18.4517 10.5201 18.4116 10.5615 18.3703L12.5458 16.389L5.4256 9.2798L3.4401 11.2621C2.87725 11.8242 2.57594 12.5736 2.59145 13.3729C2.59204 13.3816 2.59244 13.3902 2.59264 13.3989C2.60059 13.672 2.64551 13.9397 2.7262 14.1943C2.73534 14.2234 2.74289 14.2534 2.74866 14.2836C3.31131 17.2064 5.24176 24.625 11.0001 30.3747C17.913 37.277 27.3078 39.1348 27.9883 39.2616ZM40.205 22.9256C39.766 22.9256 39.41 22.5702 39.41 22.1318C39.41 11.3053 30.5884 2.497 19.745 2.497C19.306 2.497 18.95 2.14159 18.95 1.70323C18.95 1.26487 19.306 0.909454 19.745 0.909454C31.4652 0.909454 41 10.4298 41 22.1318C41 22.5702 40.644 22.9256 40.205 22.9256ZM35.2721 22.9256C34.833 22.9256 34.4771 22.5702 34.4771 22.1318C34.4771 13.9508 27.8112 7.29517 19.6178 7.29517C19.1788 7.29517 18.8228 6.93976 18.8228 6.50139C18.8228 6.06303 19.1788 5.70762 19.6178 5.70762C28.6879 5.70762 36.0671 13.0754 36.0671 22.1318C36.0671 22.5702 35.7111 22.9256 35.2721 22.9256ZM30.3514 22.9256C29.9124 22.9256 29.5565 22.5702 29.5565 22.1318C29.5565 16.6601 25.0979 12.2084 19.6178 12.2084C19.1788 12.2084 18.8228 11.853 18.8228 11.4147C18.8228 10.9763 19.1788 10.6209 19.6178 10.6209C25.9746 10.6209 31.1464 15.7846 31.1464 22.1318C31.1464 22.5702 30.7905 22.9256 30.3514 22.9256Z" fill="#EDAD73" stroke="#EDAD73"/>
</svg>
